PathFileType	4	(X/Y/Z)	 s06c0403.trc
DataRate	CameraRate	NumFrames	NumMarkers	Units	OrigDataRate	OrigDataStartFrame	OrigNumFrames
200	200	7	48	mm	200	751	2000
Frame#	Time	racr			lacr			c7			jug			rlel			rdr			llel			ldr			s2			lic			ric			lasi			rasi			rpsi			lpsi			rgt			lgt			rth1			rth2			rth3			rth4			rlfc			rmfc			rsh1			rsh2			rsh3			rsh4			rlmal			rcal			rtoe			rmt5			lth1			lth2			lth4			lth3			llfc			lmfc			llmal			lcal			lmt5			lsh1			lsh2			lsh3			lsh4			ltoe			SBIKE			LBIKE			RBIKE			
		X1	Y1	Z1	X2	Y2	Z2	X3	Y3	Z3	X4	Y4	Z4	X5	Y5	Z5	X6	Y6	Z6	X7	Y7	Z7	X8	Y8	Z8	X9	Y9	Z9	X10	Y10	Z10	X11	Y11	Z11	X12	Y12	Z12	X13	Y13	Z13	X14	Y14	Z14	X15	Y15	Z15	X16	Y16	Z16	X17	Y17	Z17	X18	Y18	Z18	X19	Y19	Z19	X20	Y20	Z20	X21	Y21	Z21	X22	Y22	Z22	X23	Y23	Z23	X24	Y24	Z24	X25	Y25	Z25	X26	Y26	Z26	X27	Y27	Z27	X28	Y28	Z28	X29	Y29	Z29	X30	Y30	Z30	X31	Y31	Z31	X32	Y32	Z32	X33	Y33	Z33	X34	Y34	Z34	X35	Y35	Z35	X36	Y36	Z36	X37	Y37	Z37	X38	Y38	Z38	X39	Y39	Z39	X40	Y40	Z40	X41	Y41	Z41	X42	Y42	Z42	X43	Y43	Z43	X44	Y44	Z44	X45	Y45	Z45	X46	Y46	Z46	X47	Y47	Z47	X48	Y48	Z48	
751	3.7550	781.695285	1202.121644	-46.285608	768.289778	1205.296580	-387.085774	812.900714	1306.395159	-217.170002	756.482484	1147.000226	-218.586497	559.749156	1076.321888	84.032984	673.997838	939.763867	-41.453819	558.790519	1074.078632	-519.567554	670.835772	928.409199	-406.309263	236.347426	1207.876444	-184.590016	378.847372	1170.462331	-358.419509	376.169836	1118.698026	-27.672416	389.714735	1112.068714	-324.888582	392.909449	1073.062937	-70.340150	278.399750	1229.225878	-148.383084	274.891024	1239.836390	-206.128148	310.373108	1041.884892	-14.335661	348.916558	1121.095591	-391.745494	330.499213	913.043168	6.937261	352.346742	825.346221	0.111712	329.799264	742.106880	-10.905119	388.678579	827.480248	-12.347349	325.440833	636.663621	-24.407727	315.532769	614.234386	-132.604819	292.678666	517.191754	-2.770632	292.687173	431.600771	-22.565806	250.747205	355.524723	-30.104172	315.051973	431.094656	-56.912314	225.246380	278.663365	-39.731545	159.843230	280.091503	-86.990941	398.514270	138.771702	-97.918709	304.835840	163.195954	-24.142887	400.179922	1015.534710	-415.019641	472.800035	958.786324	-412.068329	497.911738	982.866081	-402.408398	503.827688	879.910657	-420.641219	522.620337	769.828023	-398.876957	525.102389	750.625396	-282.744861	193.425486	604.988822	-372.606149	135.562495	649.190226	-322.954103	182.689168	457.612675	-395.863605	437.589769	707.595844	-415.046692	371.886793	656.218624	-390.281279	284.966217	638.314943	-386.390752	387.113073	637.116530	-359.458448	226.571122	381.500553	-338.116012	-204.246324	866.962023	-201.724228	-52.112909	84.047505	-410.222737	-50.874973	79.932179	-12.847062	
752	3.7600	781.776371	1204.796115	-47.958942	768.541539	1206.635175	-389.011896	812.389918	1307.439038	-219.105134	756.498055	1147.852942	-219.194685	561.175253	1076.248564	83.035690	677.032695	939.096713	-43.206551	558.403297	1074.286931	-520.249348	670.843193	929.162473	-406.539754	235.853705	1205.247506	-182.566897	377.064885	1171.441301	-358.218284	379.246124	1116.437442	-28.289203	389.534050	1113.554445	-325.621160	395.490749	1071.246295	-71.626418	278.175552	1226.930929	-146.145135	274.092925	1238.185277	-203.695936	311.844389	1038.074814	-14.811418	347.240674	1122.218186	-392.500271	327.916495	911.189750	6.187815	347.405091	822.631737	-0.981966	322.356498	740.239452	-11.863029	383.529242	823.795036	-13.881886	315.896058	634.964753	-25.140264	303.950254	613.507011	-134.174447	284.120985	515.355012	-2.996542	284.605269	429.701071	-22.702056	243.165604	353.304054	-30.176998	306.984997	429.326166	-57.017513	218.737800	276.292366	-39.724484	154.142828	279.218311	-87.024679	388.959317	131.460486	-97.758771	295.844890	158.458837	-24.022964	399.497194	1017.415881	-417.580647	474.953438	961.721002	-413.046215	498.227739	986.878003	-403.175854	507.193366	884.791551	-421.994356	530.305606	776.497830	-398.340867	532.664668	757.502242	-282.142697	201.221612	610.122591	-372.490691	142.346004	653.499557	-323.054643	192.315815	462.729751	-395.766832	445.941013	713.926753	-414.435513	380.237515	662.358749	-389.888997	293.317165	644.368003	-386.134933	395.462547	643.185897	-359.171811	237.327111	387.273190	-338.032113	-204.403115	866.999727	-201.644722	-52.117120	84.094024	-410.212472	-50.918608	80.072160	-12.831544	
753	3.7650	781.930194	1207.429743	-49.488077	768.816952	1207.936591	-390.916983	811.843827	1308.299815	-220.879408	756.540616	1148.514963	-219.518427	562.433955	1076.759330	82.178627	678.807926	939.332934	-44.142836	558.128606	1074.657915	-520.765826	671.000967	930.073752	-406.611165	236.185910	1203.346311	-179.769199	375.413144	1172.632926	-358.117024	382.325712	1114.339095	-28.899283	389.422659	1115.134921	-326.217815	398.158299	1069.413464	-72.673632	279.107071	1224.529368	-144.534412	273.490599	1236.925286	-201.411748	313.501244	1034.809108	-15.201919	345.389818	1122.934903	-393.227853	325.572086	909.681935	5.000144	347.078967	821.920535	-0.122221	315.323537	739.037998	-12.706887	378.546293	820.826219	-15.600269	306.658486	633.922623	-25.930769	293.959659	612.574707	-135.756911	275.521546	514.161753	-3.274423	276.677140	428.621299	-22.821807	235.826461	351.757089	-30.323388	298.668315	428.009379	-57.065441	212.284091	274.663412	-39.911449	148.453371	279.433198	-87.227011	379.172372	124.577294	-97.469678	286.760438	154.371421	-23.980325	398.368386	1018.826203	-420.976353	476.836059	964.268928	-413.975004	498.214389	990.235062	-401.071486	510.149480	889.434737	-423.367546	537.602362	783.178387	-397.801436	540.025168	764.492508	-280.683956	208.981570	614.685327	-372.093807	149.010281	656.831410	-322.824489	202.396786	467.166662	-395.774171	453.848675	720.254246	-413.734891	388.511750	668.394459	-389.504868	301.431772	650.001212	-385.838753	403.644357	648.783097	-358.989898	248.898898	392.960727	-338.618095	-204.547091	867.024220	-201.460257	-52.135190	84.158402	-410.142487	-50.919744	80.045982	-12.814223	
754	3.7700	782.224183	1209.681576	-50.922138	769.221710	1209.181038	-392.744559	811.334427	1309.001370	-222.462103	756.803104	1148.968012	-219.811619	563.541404	1077.849406	81.332387	679.949702	939.727823	-44.556067	558.080218	1075.150208	-521.012317	671.261428	930.975370	-406.546946	236.412604	1201.891157	-177.328717	373.772214	1173.874203	-358.208179	386.828701	1113.068906	-28.515444	389.292378	1116.525512	-325.179458	402.220089	1069.001027	-73.317714	277.031109	1224.477349	-141.385774	273.594604	1235.903480	-199.838051	315.163882	1031.912403	-15.903669	343.378723	1123.397605	-393.890848	323.657663	908.679106	3.462775	341.470048	820.221231	-2.223584	309.106347	738.344484	-13.596256	374.463276	818.588810	-17.396872	297.747573	633.399108	-26.795343	284.768560	611.689793	-137.281939	267.047821	513.667626	-3.549823	268.816925	427.932093	-23.042945	228.694879	350.838017	-30.360248	291.094471	427.548931	-57.008517	206.318213	273.618812	-40.165814	143.373792	280.290108	-87.354080	369.168924	118.014745	-97.306202	277.707976	150.858174	-23.881747	397.600767	1019.626160	-424.015627	478.453122	966.440518	-414.855962	496.826841	994.132173	-400.278195	512.852724	894.145541	-424.412202	544.166331	790.007110	-397.708966	546.327400	771.280455	-279.860833	216.714549	618.479405	-371.483004	155.770076	659.378351	-322.502130	212.694583	470.885784	-395.563517	461.303187	726.499104	-413.140439	396.242416	673.953645	-389.289371	309.306637	655.145158	-385.494854	411.604018	654.174478	-359.061368	259.907003	397.218147	-338.270873	-204.666018	867.039000	-201.255763	-52.120582	84.314594	-410.164705	-50.853666	79.921626	-12.828707	
755	3.7750	782.572792	1211.698787	-52.296702	770.093962	1210.279787	-394.628481	810.962333	1309.675292	-224.044415	757.474278	1149.313886	-220.238313	564.599385	1079.380143	80.599452	680.356368	940.088486	-44.529974	558.197893	1075.824098	-521.044227	671.514349	931.783381	-406.323095	235.661822	1201.124416	-174.815063	372.236913	1175.341116	-358.414240	389.867704	1111.058078	-29.199912	388.969610	1118.849007	-326.682214	403.574246	1066.348031	-75.429589	277.649059	1222.769716	-139.506258	273.900075	1235.383876	-198.446486	316.683585	1029.441028	-16.752177	341.531837	1123.968836	-394.302188	322.561618	908.265949	2.676501	336.417807	818.506670	-4.378945	303.462740	738.092614	-14.417257	371.147863	816.676420	-19.325835	289.381709	633.289362	-27.720258	276.228280	611.259715	-138.537242	258.857009	513.685513	-3.663748	261.345224	427.972225	-23.123780	221.911877	350.494317	-30.381344	283.868923	427.642856	-56.888662	200.830620	273.375051	-40.322259	138.864972	281.899641	-87.589071	358.779307	111.624329	-96.979044	268.418589	147.754180	-23.768644	397.596624	1020.679734	-425.096694	479.809853	968.246184	-415.690354	496.064886	997.596599	-399.882855	515.506043	898.620199	-424.352081	550.051114	796.623444	-396.842388	551.945338	777.796993	-278.807932	224.444907	621.332360	-370.849980	163.309090	661.326972	-321.889263	222.991203	474.215822	-395.827920	468.111484	732.414799	-412.472421	403.635790	679.139162	-388.970895	316.767929	659.512577	-385.162304	419.102336	658.950472	-359.104674	271.245227	401.152665	-338.458006	-204.730526	867.075701	-201.159181	-52.159673	84.327905	-410.141117	-51.014092	80.342023	-12.497456	
756	3.7800	783.001412	1213.296416	-53.568194	770.725248	1211.331507	-396.407531	810.660331	1310.109515	-225.319853	758.019319	1149.494012	-220.555408	565.555733	1081.164708	79.924206	680.420731	940.462848	-44.051763	558.426521	1076.652512	-520.956068	671.728370	932.455067	-405.943700	236.158802	1201.066350	-172.802549	370.841462	1176.979352	-358.709925	389.473249	1107.776458	-34.936779	388.514082	1121.335004	-328.507755	404.849785	1064.037899	-77.159652	278.560892	1221.877386	-137.880238	274.068626	1235.339163	-196.952028	317.766921	1027.561641	-17.392113	339.917259	1125.215232	-394.449228	321.898731	907.690149	0.391787	332.730742	818.008211	-6.276117	298.632452	738.299857	-15.028854	367.622612	815.351661	-21.525143	281.026719	633.667887	-28.991732	268.910803	610.997393	-139.701207	251.015182	514.298622	-4.069528	254.418653	428.616944	-23.132419	215.538018	350.768880	-30.269784	277.217657	428.253374	-56.691283	195.782933	273.713947	-40.390998	134.939004	284.475953	-87.888083	348.072164	105.475163	-96.749052	259.215961	145.399671	-23.680518	397.599652	1022.489547	-422.840916	480.911479	969.696342	-416.479442	495.838143	1001.626496	-399.481088	518.018870	902.860572	-423.211970	555.206623	802.716535	-395.800358	557.041361	784.129488	-277.318528	232.012666	623.133082	-370.282468	169.630757	662.219050	-321.613829	233.349981	476.937636	-396.122061	474.220603	737.798472	-411.835894	410.418943	683.543705	-388.643593	323.855054	662.796492	-384.892075	426.163473	663.177462	-358.930618	282.934711	404.806329	-338.766368	-204.796338	867.028697	-201.156979	-52.148482	84.264885	-410.091739	-51.034379	80.412354	-12.511095	
757	3.7850	783.548874	1214.490905	-54.853215	771.287104	1212.093063	-398.062159	810.543665	1310.369683	-226.500965	758.612188	1149.547559	-220.990770	566.429590	1083.117434	79.345541	680.253665	940.813783	-43.156891	558.709021	1077.290086	-520.742912	671.780091	932.895544	-405.319959	236.516344	1201.508469	-171.179428	369.576067	1178.857265	-359.281687	391.810323	1106.277980	-35.897578	388.026742	1123.806215	-329.792367	405.735518	1062.691093	-78.082229	279.595462	1222.149840	-136.597498	274.382783	1235.891808	-195.424286	318.799532	1026.238725	-18.159054	338.630019	1127.243319	-394.397687	322.049286	907.590497	-1.362353	330.048764	817.916283	-7.843827	294.353846	738.927913	-16.088865	364.680257	814.331843	-23.569086	274.197917	634.476363	-30.096359	262.910397	611.197450	-140.835724	243.863971	515.556146	-4.451316	248.085634	429.719090	-23.231594	209.907731	351.666234	-30.171259	271.072564	429.329275	-56.552018	191.380199	274.792676	-40.400082	131.783499	287.660086	-88.127711	337.142731	99.813794	-96.394039	250.034796	143.452031	-23.598051	397.464320	1024.905806	-419.038744	481.763223	970.801407	-417.224493	500.031839	1007.757196	-401.205646	520.906457	907.181083	-420.326189	559.847919	808.219739	-394.316778	561.354305	790.263608	-275.871859	238.668774	623.952376	-370.132533	173.983439	662.431341	-321.739727	243.589514	479.335393	-396.564815	479.596673	742.238299	-410.667695	416.635221	687.157899	-388.090405	330.347027	664.950770	-384.586179	432.672548	666.942828	-358.846026	295.120322	408.596574	-338.977218	-204.903321	866.944482	-201.392951	-52.178334	84.184566	-410.121876	-50.961678	80.032692	-12.830837	
